HIERARCHY
ROOT Hips
{
	OFFSET 0.000000 0.000000 0.000000
	CHANNELS 6 Xposition Yposition Zposition Xrotation Yrotation Zrotation
	JOINT LeftUpLeg_virtual
	{
		OFFSET 0.000000 0.000000 0.000000
		CHANNELS 3 Xrotation Yrotation Zrotation
		JOINT LeftUpLeg
		{
			OFFSET 13.026900 -6.336304 -1.092800
			CHANNELS 3 Xrotation Yrotation Zrotation
			JOINT LeftLeg
			{
				OFFSET 0.524474 -46.096886 9.782700
				CHANNELS 3 Xrotation Yrotation Zrotation
				JOINT LeftFoot
				{
					OFFSET -0.524474 -53.427422 -12.948200
					CHANNELS 3 Xrotation Yrotation Zrotation
					JOINT LeftToeBase
					{
						OFFSET 0.192200 -14.009700 16.364100
						CHANNELS 3 Xrotation Yrotation Zrotation
						JOINT LeftToe_End
						{
							OFFSET -1.784700 -0.561700 9.474800
							CHANNELS 3 Xrotation Yrotation Zrotation
							End Site
							{
								OFFSET 0 0 0
							}
						}
					}
				}
			}
		}
	}
	JOINT RightUpLeg_virtual
	{
		OFFSET 0.000000 0.000000 0.000000
		CHANNELS 3 Xrotation Yrotation Zrotation
		JOINT RightUpLeg
		{
			OFFSET -12.883000 -6.336304 -1.092800
			CHANNELS 3 Xrotation Yrotation Zrotation
			JOINT RightLeg
			{
				OFFSET -0.524587 -46.096825 9.782800
				CHANNELS 3 Xrotation Yrotation Zrotation
				JOINT RightFoot
				{
					OFFSET 0.524587 -53.427383 -12.948300
					CHANNELS 3 Xrotation Yrotation Zrotation
					JOINT RightToeBase
					{
						OFFSET -0.192200 -14.009700 16.364100
						CHANNELS 3 Xrotation Yrotation Zrotation
						JOINT RightToe_End
						{
							OFFSET 1.784700 -0.561700 9.474800
							CHANNELS 3 Xrotation Yrotation Zrotation
							End Site
							{
								OFFSET 0 0 0
							}
						}
					}
				}
			}
		}
	}
	JOINT Spine_virtual
	{
		OFFSET 0.000000 0.000000 0.000000
		CHANNELS 3 Xrotation Yrotation Zrotation
		JOINT Spine
		{
			OFFSET 0.072000 7.257294 -0.789700
			CHANNELS 3 Xrotation Yrotation Zrotation
			JOINT Spine1
			{
				OFFSET 0.000000 12.508769 -0.658067
				CHANNELS 3 Xrotation Yrotation Zrotation
				JOINT Spine1_split
				{
					OFFSET 0.000000 12.508769 -0.658067
					CHANNELS 3 Xrotation Yrotation Zrotation
					JOINT Spine2
					{
						OFFSET 0.000000 12.508769 -0.658067
						CHANNELS 3 Xrotation Yrotation Zrotation
						JOINT Neck_virtual
						{
							OFFSET 0.000000 0.000000 0.000000
							CHANNELS 3 Xrotation Yrotation Zrotation
							JOINT Neck
							{
								OFFSET 0.000000 14.033295 7.520400
								CHANNELS 3 Xrotation Yrotation Zrotation
								JOINT Head
								{
									OFFSET 0.000000 8.198502 5.703100
									CHANNELS 3 Xrotation Yrotation Zrotation
									JOINT HeadTop_End
									{
										OFFSET 0.000000 17.760803 13.332701
										CHANNELS 3 Xrotation Yrotation Zrotation
										End Site
										{
											OFFSET 0 0 0
										}
									}
								}
							}
						}
						JOINT LeftShoulder_virtual
						{
							OFFSET 0.000000 0.000000 0.000000
							CHANNELS 3 Xrotation Yrotation Zrotation
							JOINT LeftShoulder
							{
								OFFSET 6.292450 5.785301 -0.669000
								CHANNELS 3 Xrotation Yrotation Zrotation
								JOINT LeftShoulder_split
								{
									OFFSET 6.292450 5.785301 -0.669000
									CHANNELS 3 Xrotation Yrotation Zrotation
									JOINT LeftArm
									{
										OFFSET 13.907140 -6.093903 1.965100
										CHANNELS 3 Xrotation Yrotation Zrotation
										JOINT LeftForeArm
										{
											OFFSET 34.140198 0.000000 0.000000
											CHANNELS 3 Xrotation Yrotation Zrotation
											JOINT LeftHand
											{
												OFFSET 40.960209 0.000000 0.000000
												CHANNELS 3 Xrotation Yrotation Zrotation
												End Site
												{
													OFFSET 0 0 0
												}
											}
										}
									}
								}
							}
						}
						JOINT RightShoulder_virtual
						{
							OFFSET 0.000000 0.000000 0.000000
							CHANNELS 3 Xrotation Yrotation Zrotation
							JOINT RightShoulder
							{
								OFFSET -6.292450 5.785301 -0.669000
								CHANNELS 3 Xrotation Yrotation Zrotation
								JOINT RightShoulder_split
								{
									OFFSET -6.292450 5.785301 -0.669000
									CHANNELS 3 Xrotation Yrotation Zrotation
									JOINT RightArm
									{
										OFFSET -13.907140 -6.093903 1.965100
										CHANNELS 3 Xrotation Yrotation Zrotation
										JOINT RightForeArm
										{
											OFFSET -34.140198 0.000000 0.000000
											CHANNELS 3 Xrotation Yrotation Zrotation
											JOINT RightHand
											{
												OFFSET -40.960209 0.000000 0.000000
												CHANNELS 3 Xrotation Yrotation Zrotation
												End Site
												{
													OFFSET 0 0 0
												}
											}
										}
									}
								}
							}
						}
					}
				}
			}
		}
	}
}
MOTION
Frames: 5
Frame Time: 0.03333333
-5.030712 98.146584 86.045837 0.000000 0.000000 0.000000 25.818264 16.138173 -8.057417 7.965805 11.001504 2.760506 3.556597 14.400334 3.603797 -13.593953 8.407140 -24.724139 -15.436665 -4.435136 1.260915 0.000000 0.000000 0.000000 26.578648 14.994832 -7.902574 -74.815502 -9.673419 2.621650 63.453933 -29.491609 -2.676192 2.434294 2.255793 -1.412718 -9.264111 4.495966 4.345294 0.000000 0.000000 0.000000 29.105567 9.522117 -7.166858 5.227853 0.317496 2.530487 8.747208 -0.552472 3.818341 1.210232 -1.508789 1.473192 0.000000 0.000000 0.000000 10.489063 0.020381 3.257302 -6.935567 -0.878933 -0.271245 -6.449388 6.304341 2.975725 0.000000 0.000000 0.000000 11.878905 -0.466167 3.407189 2.384417 -20.103970 2.940924 2.064498 -1.434261 -4.006208 -40.226317 -22.452019 -40.095789 108.747547 -63.641913 120.266613 0.000000 0.000000 0.000000 10.589525 0.125079 3.887503 3.274450 11.187152 -1.162612 2.848118 7.807279 0.753121 -45.911224 15.032855 35.214154 121.798119 45.583842 -143.260144 0.000000 0.000000 0.000000 
-5.074749 97.828049 86.468857 0.000000 0.000000 0.000000 26.082556 16.237945 -8.093428 7.368346 11.034691 2.955903 4.524096 14.388152 3.539231 -13.812281 8.446186 -24.890208 -16.210863 -4.538547 1.287478 0.000000 0.000000 0.000000 26.914277 15.085128 -7.952276 -75.683789 -10.007447 2.485131 64.311586 -29.324659 -2.818300 2.327040 2.437608 -1.332040 -9.937443 4.377081 4.453128 0.000000 0.000000 0.000000 29.374769 9.637329 -7.228694 5.217199 0.404810 2.588260 8.262715 -0.520556 3.803034 1.211120 -1.530163 1.459297 0.000000 0.000000 0.000000 10.035022 0.045649 3.260375 -7.142336 -0.842587 -0.373505 -6.463318 6.092189 2.975380 0.000000 0.000000 0.000000 11.380042 -0.428373 3.392491 2.507041 -20.176912 3.377348 2.108242 -1.437191 -3.930478 -40.679893 -22.611676 -39.976663 106.936980 -64.140981 118.530352 0.000000 0.000000 0.000000 10.117496 0.155353 3.864517 3.331075 10.968652 -1.600650 2.884170 7.797577 0.702374 -46.632837 15.053324 35.721620 121.325784 45.990816 -142.543015 0.000000 0.000000 0.000000 
-5.120500 97.505287 86.893654 0.000000 0.000000 0.000000 26.362565 16.324861 -8.134377 6.750108 11.050340 3.175503 5.463476 14.409350 3.469197 -14.028836 8.496327 -25.065932 -16.913393 -4.641595 1.302285 0.000000 0.000000 0.000000 27.279729 15.160599 -8.008007 -76.512114 -10.401418 2.301709 65.006510 -29.165611 -3.002009 2.210985 2.633498 -1.176618 -10.536892 4.282886 4.529696 0.000000 0.000000 0.000000 29.667313 9.729996 -7.291299 5.235035 0.479167 2.630320 7.753113 -0.485779 3.794849 1.216845 -1.539517 1.453458 0.000000 0.000000 0.000000 9.549680 0.069455 3.267270 -7.355429 -0.790783 -0.492419 -6.502447 5.903985 2.980049 0.000000 0.000000 0.000000 10.853102 -0.391254 3.381438 2.617689 -20.232313 3.788358 2.152421 -1.452382 -3.847562 -41.261955 -22.845180 -39.941341 104.733636 -64.638779 116.371274 0.000000 0.000000 0.000000 9.614833 0.186036 3.845620 3.382544 10.743148 -2.061489 2.942893 7.799127 0.662278 -47.452377 15.015365 36.241137 120.725793 46.475831 -141.697643 0.000000 0.000000 0.000000 
-5.158538 97.158363 87.315392 0.000000 0.000000 0.000000 26.679074 16.380785 -8.190528 6.114826 11.036812 3.433575 6.386279 14.448051 3.391486 -14.241677 8.547512 -25.275197 -17.558769 -4.747199 1.314275 0.000000 0.000000 0.000000 27.670828 15.222769 -8.079823 -77.292422 -10.860012 2.084236 65.609165 -29.035250 -3.191327 2.004049 2.824906 -1.031103 -11.022041 4.210495 4.590524 0.000000 0.000000 0.000000 29.990801 9.781604 -7.352874 5.277349 0.542090 2.654455 7.221704 -0.450216 3.786732 1.216155 -1.539728 1.455010 0.000000 0.000000 0.000000 9.025884 0.090834 3.269347 -7.557512 -0.724926 -0.619798 -6.577151 5.743064 3.000637 0.000000 0.000000 0.000000 10.297535 -0.357866 3.367173 2.716647 -20.270294 4.192581 2.189102 -1.471572 -3.773663 -41.941770 -23.161638 -39.979109 102.204922 -65.103492 113.852423 0.000000 0.000000 0.000000 9.076930 0.215189 3.824357 3.431115 10.521058 -2.532053 3.017140 7.795368 0.630676 -48.326413 14.867298 36.771532 120.000331 47.034120 -140.736731 0.000000 0.000000 0.000000 
-5.198447 96.769089 87.731758 0.000000 0.000000 0.000000 27.043229 16.393784 -8.257507 5.469215 10.991867 3.739994 7.306427 14.492032 3.309651 -14.462162 8.590185 -25.524144 -18.205120 -4.859753 1.339016 0.000000 0.000000 0.000000 28.078365 15.272626 -8.166214 -78.050559 -11.380305 1.837141 66.250342 -28.954029 -3.326336 1.699608 2.983004 -0.975880 -11.438073 4.146912 4.665460 0.000000 0.000000 0.000000 30.340861 9.798865 -7.411781 5.332856 0.594248 2.661691 6.675167 -0.415419 3.772667 1.202804 -1.551306 1.467007 0.000000 0.000000 0.000000 8.466008 0.109283 3.261192 -7.733460 -0.653591 -0.748657 -6.692283 5.595437 3.039102 0.000000 0.000000 0.000000 9.713793 -0.327708 3.345963 2.808742 -20.303267 4.610345 2.237387 -1.483764 -3.714659 -42.684594 -23.547671 -40.049463 99.467574 -65.521294 111.095636 0.000000 0.000000 0.000000 8.507334 0.242551 3.794626 3.477588 10.305560 -3.009040 3.104431 7.789099 0.598840 -49.213388 14.604727 37.313860 119.194437 47.638148 -139.713159 0.000000 0.000000 0.000000 
